<?xml version="1.0" standalone="no"?><!DOCTYPE svg PUBLIC "-//W3C//DTD SVG 1.1//EN" "http://www.w3.org/Graphics/SVG/1.1/DTD/svg11.dtd"><svg t="1669206546274" class="icon" viewBox="0 0 1024 1024" version="1.1" xmlns="http://www.w3.org/2000/svg" p-id="8357" xmlns:xlink="http://www.w3.org/1999/xlink" width="64" height="64"><path d="M960 128v768h-192V258.88zM256 607.36V896H64v-158.08z" fill="#E0EBFE" p-id="8358"></path><path d="M64 928h192a32 32 0 0 0 32-32v-288.64a32 32 0 0 0-50.016-26.464l-192 130.56A32.064 32.064 0 0 0 32 737.92V896a32 32 0 0 0 32 32z m32-173.12l128-87.04V864H96v-109.12zM416 928h192a32 32 0 0 0 32-32V367.68a32 32 0 0 0-50.016-26.464l-192 130.56a32.064 32.064 0 0 0-13.984 26.464V896a32 32 0 0 0 32 32z m32-412.8l128-87.04V864h-128V515.2zM768 928h192a32 32 0 0 0 32-32V128a32 32 0 0 0-50.016-26.432l-192 130.88A32 32 0 0 0 736 258.88V896a32 32 0 0 0 32 32z m32-652.192l128-87.264V864h-128V275.808z" fill="#5465CF" p-id="8359"></path></svg>